<?xml version="1.0" encoding="utf-8"?>
<!-- Generator: Adobe Illustrator 25.3.1, SVG Export Plug-In . SVG Version: 6.00 Build 0)  -->
<svg version="1.1" xmlns="http://www.w3.org/2000/svg" xmlns:xlink="http://www.w3.org/1999/xlink" x="0px" y="0px"
	 viewBox="0 0 581.7 197.2" style="enable-background:new 0 0 581.7 197.2;" xml:space="preserve">
<style type="text/css">
	.st0{opacity:0.13;fill:#7CCDC8;}
	.st1{fill:#7CCDC8;}
</style>
<g id="Warstwa_4">
</g>
<g id="Warstwa_3">
</g>
<g id="Warstwa_6">
</g>
<g id="Warstwa_7">
</g>
<g id="Warstwa_5">
	<g>
		<g>
			<path d="M361.3,73.6c0-0.4,0-0.8,0-1.2c-0.6-32.2-26.6-58.2-58.8-58.8c-0.4,0-0.8,0-1.2,0c-0.4,0-0.8,0-1.2,0
				c-20.8,0.6-37.7,17.1-38.8,37.8c0.2,3.8,0.7,7.6,1.5,11.2c0,0,0,0,0,0c0.6,2.8,1.4,5.5,2.4,8.2c6.5,18,20.8,32.2,38.7,38.8
				c0,0,0,0,0,0c2.7,1,5.5,1.8,8.3,2.4c3.6,0.8,7.4,1.3,11.2,1.5c20.7-1.1,37.2-17.9,37.8-38.8C361.3,74.4,361.3,74,361.3,73.6z"/>
			<path class="st0" d="M361.3,74.8c-0.6,20.8-17.1,37.7-37.8,38.8c-3.8-0.2-7.6-0.7-11.2-1.5c-2.8-0.6-5.6-1.4-8.3-2.4c0,0,0,0,0,0
				c-17.9-6.6-32.2-20.8-38.7-38.8c-1-2.7-1.8-5.4-2.4-8.2c0,0,0,0,0,0c-0.8-3.6-1.3-7.4-1.5-11.2c1.1-20.7,18-37.2,38.8-37.8
				c0.4,0,0.8,0,1.2,0c0.4,0,0.8,0,1.2,0c32.2,0.6,58.2,26.6,58.8,58.8c0,0.4,0,0.8,0,1.2C361.3,74,361.3,74.4,361.3,74.8z"/>
			<path class="st0" d="M361.3,72.5c0,0.4,0,0.8,0,1.2c0,0.4,0,0.8,0,1.2c-0.6,20.8-17.1,37.7-37.8,38.8c-3.8-0.2-7.6-0.7-11.2-1.5
				c-2.8-0.6-5.6-1.4-8.3-2.4c0,0,0,0,0,0c-17.9-6.6-32.2-20.8-38.7-38.8c-1-2.7-1.8-5.4-2.4-8.2c0,0,0,0,0,0
				c-0.8-3.6-1.3-7.4-1.5-11.2c1.1-20.7,18-37.2,38.8-37.8c0.4,0,0.8,0,1.2,0c0.4,0,0.8,0,1.2,0C334.7,14.2,360.7,40.2,361.3,72.5z"
				/>
			<path class="st0" d="M341.3,73.6c0,18.3-12.3,33.7-29,38.5c-2.8-0.6-5.6-1.4-8.3-2.4c0,0,0,0,0,0c-17.9-6.6-32.2-20.8-38.7-38.8
				c-1-2.7-1.8-5.4-2.4-8.2c0,0,0,0,0,0c4.8-16.8,20.2-29,38.5-29c3.5,0,6.8,0.4,10,1.3c14.1,3.6,25.1,14.7,28.7,28.7v0
				C340.9,66.8,341.3,70.2,341.3,73.6z"/>
			<path class="st0" d="M361.3,73.6c0,0.4,0,0.8,0,1.2c-0.6,20.8-17.1,37.7-37.8,38.8c-3.8-0.2-7.6-0.7-11.2-1.5
				c-2.8-0.6-5.6-1.4-8.3-2.4c0,0,0,0,0,0c-7.1-3.4-13-8.9-17-15.6c-0.8-1.3-1.5-2.6-2.1-4c-2.3-5-3.5-10.6-3.5-16.5
				c0-7.5,2.1-14.5,5.6-20.4c5.3-9,14-15.6,24.4-18.3c3.2-0.8,6.6-1.3,10-1.3c5.9,0,11.4,1.3,16.5,3.5c13.5,6.1,23.1,19.6,23.5,35.3
				C361.3,72.8,361.3,73.2,361.3,73.6z"/>
			<circle class="st0" cx="301.3" cy="73.6" r="25"/>
			<circle class="st0" cx="301.3" cy="73.6" r="15"/>
			<circle class="st0" cx="301.3" cy="73.6" r="5"/>
			<circle class="st0" cx="301.3" cy="73.6" r="2.5"/>
			<path class="st0" d="M361.3,74.8c-0.6,20.8-17.1,37.7-37.8,38.8c-3.8-0.2-7.6-0.7-11.2-1.5c-2.8-0.6-5.6-1.4-8.3-2.4c0,0,0,0,0,0
				c-17.9-6.6-32.2-20.8-38.7-38.8c-1-2.7-1.8-5.4-2.4-8.2c0,0,0,0,0,0c-0.8-3.6-1.3-7.4-1.5-11.2c1.1-20.7,18-37.2,38.8-37.8
				c0.4,0,0.8,0,1.2,0c0.4,0,0.8,0,1.2,0c32.2,0.6,58.2,26.6,58.8,58.8c0,0.4,0,0.8,0,1.2C361.3,74,361.3,74.4,361.3,74.8z"/>
			<path class="st0" d="M341.3,53.6c0,3.4-0.4,6.8-1.3,10v0c-2.7,10.3-9.4,19.1-18.3,24.4c-6,3.6-13,5.6-20.4,5.6
				c-5.9,0-11.4-1.3-16.5-3.5c-1.4-0.6-2.7-1.3-4-2.1c-6.8-4-12.2-10-15.6-17.1c-1-2.7-1.8-5.4-2.4-8.2c0,0,0,0,0,0
				c-0.8-3.6-1.3-7.4-1.5-11.2c1.1-20.7,18-37.2,38.8-37.8c0.4,0,0.8,0,1.2,0c0.4,0,0.8,0,1.2,0c15.7,0.5,29.2,10,35.3,23.5
				C340.1,42.2,341.3,47.8,341.3,53.6z"/>
		</g>
		<g>
			<g>
				<circle cx="212.1" cy="86.2" r="4"/>
				<circle cx="220.8" cy="126.2" r="6.5"/>
				<circle cx="302.1" cy="176.2" r="13"/>
				<circle cx="254.1" cy="163.2" r="9"/>
				<circle cx="392.1" cy="86.2" r="4"/>
				<circle cx="383.4" cy="126.2" r="6.5"/>
				<circle cx="350" cy="163.2" r="9"/>
				<circle cx="212.1" cy="86.2" r="4"/>
				<circle cx="220.8" cy="126.2" r="6.5"/>
				<circle cx="302.1" cy="176.2" r="13"/>
				<circle cx="254.1" cy="163.2" r="9"/>
				<circle cx="392.1" cy="86.2" r="4"/>
				<circle cx="383.4" cy="126.2" r="6.5"/>
				<circle cx="350" cy="163.2" r="9"/>
			</g>
			<path d="M362,74.2c-0.6,20.8-17.1,37.7-37.8,38.8c-3.8-0.2-7.6-0.7-11.2-1.5c-2.8-0.6-5.6-1.4-8.3-2.4c0,0,0,0,0,0
				c-17.9-6.6-32.2-20.8-38.7-38.8c-1-2.7-1.8-5.4-2.4-8.2c0,0,0,0,0,0c-0.8-3.6-1.3-7.4-1.5-11.2c1.1-20.7,18-37.2,38.8-37.8
				c0.4,0,0.8,0,1.2,0c0.4,0,0.8,0,1.2,0c32.2,0.6,58.2,26.6,58.8,58.8c0,0.4,0,0.8,0,1.2C362.1,73.4,362.1,73.8,362,74.2z
				 M302.1,8.1c-11.5,0-22.3,3-31.7,8.3c-19.8,11.1-33.3,32.4-33.3,56.7c0,35.9,29.1,65,65,65c24.4,0,45.6-13.4,56.7-33.3
				c5.3-9.4,8.3-20.2,8.3-31.7C367.1,37.2,338,8.1,302.1,8.1z"/>
		</g>
		<g>
			<path class="st1" d="M302.1,113.5c-22.3,0-40.5-18.1-40.5-40.4c0-22.3,18.1-40.5,40.5-40.5s40.5,18.1,40.5,40.5
				C342.5,95.4,324.4,113.5,302.1,113.5z M302.1,33.5c-21.8,0-39.5,17.7-39.5,39.5c0,21.8,17.7,39.5,39.5,39.5s39.5-17.7,39.5-39.5
				C341.6,51.2,323.9,33.5,302.1,33.5z"/>
		</g>
		<g>
			<path class="st1" d="M322.1,113.5c-22.3,0-40.5-18.1-40.5-40.4c0-22.3,18.1-40.5,40.5-40.5s40.5,18.1,40.5,40.5
				C362.5,95.4,344.4,113.5,322.1,113.5z M322.1,33.5c-21.8,0-39.5,17.7-39.5,39.5c0,21.8,17.7,39.5,39.5,39.5s39.5-17.7,39.5-39.5
				C361.6,51.2,343.9,33.5,322.1,33.5z"/>
		</g>
		<g>
			<path class="st1" d="M302.1,98.5c-14,0-25.5-11.4-25.5-25.5s11.4-25.5,25.5-25.5s25.5,11.4,25.5,25.5S316.1,98.5,302.1,98.5z
				 M302.1,48.5c-13.5,0-24.5,11-24.5,24.5s11,24.5,24.5,24.5s24.5-11,24.5-24.5S315.6,48.5,302.1,48.5z"/>
		</g>
		<g>
			<path class="st1" d="M302.1,88.5c-8.5,0-15.5-6.9-15.5-15.5s6.9-15.5,15.5-15.5s15.5,6.9,15.5,15.5S310.6,88.5,302.1,88.5z
				 M302.1,58.5c-8,0-14.5,6.5-14.5,14.5s6.5,14.5,14.5,14.5s14.5-6.5,14.5-14.5S310.1,58.5,302.1,58.5z"/>
		</g>
		<g>
			<path class="st1" d="M302.1,78.5c-3,0-5.5-2.4-5.5-5.5s2.4-5.5,5.5-5.5s5.5,2.4,5.5,5.5S305.1,78.5,302.1,78.5z M302.1,68.5
				c-2.5,0-4.5,2-4.5,4.5s2,4.5,4.5,4.5s4.5-2,4.5-4.5S304.6,68.5,302.1,68.5z"/>
		</g>
		<g>
			<path class="st1" d="M302.1,76c-1.6,0-3-1.3-3-3s1.3-3,3-3s3,1.3,3,3S303.7,76,302.1,76z M302.1,71c-1.1,0-2,0.9-2,2s0.9,2,2,2
				s2-0.9,2-2S303.2,71,302.1,71z"/>
		</g>
		<g>
			<path class="st1" d="M302.1,93.5c-22.3,0-40.5-18.1-40.5-40.5s18.1-40.5,40.5-40.5s40.5,18.1,40.5,40.5S324.4,93.5,302.1,93.5z
				 M302.1,13.5c-21.8,0-39.5,17.7-39.5,39.5s17.7,39.5,39.5,39.5s39.5-17.7,39.5-39.5S323.9,13.5,302.1,13.5z"/>
		</g>
		<g>
			<path class="st1" d="M302.1,133.5c-33.3,0-60.5-27.1-60.5-60.4s27.1-60.5,60.5-60.5s60.5,27.1,60.5,60.5S335.4,133.5,302.1,133.5
				z M302.1,13.5c-32.8,0-59.5,26.7-59.5,59.5s26.7,59.5,59.5,59.5s59.5-26.7,59.5-59.5S334.9,13.5,302.1,13.5z"/>
		</g>
		<g>
			<path d="M15.6,63.7v42.3h14.5v7.1H8.1V63.7H15.6z"/>
			<path d="M47,63.7v29.8c0,2.7,0.1,5.9,1.6,8.5c1.5,2.5,4.8,5.1,9.2,5.1c4.4,0,7.7-2.6,9.2-5.1c1.5-2.6,1.6-5.8,1.6-8.5V63.7H76
				v31.7c0,3.9-0.8,8.7-4.6,12.8c-2.6,2.8-7,5.8-13.7,5.8c-6.7,0-11.1-3-13.7-5.8c-3.8-4.1-4.6-8.9-4.6-12.8V63.7H47z"/>
			<path d="M90,113.1V60.4l35.8,37.5V63.7h7.5v52.4L97.6,78.6v34.5H90z"/>
			<path d="M176.5,101.1h-21.1l-5.4,11.9h-8.1l24.6-52.2l23.4,52.2h-8.1L176.5,101.1z M173.4,94l-7.3-16.7L158.5,94H173.4z"/>
		</g>
		<g>
			<path d="M449,101.1H428l-5.4,11.9h-8.1L439,60.8l23.4,52.2h-8.1L449,101.1z M446,94l-7.3-16.7L431.1,94H446z"/>
			<path d="M479.6,63.7c6,0,9.8,0.7,13,2.9c5.4,3.6,5.8,9.5,5.8,11.6c0,7.1-4.4,12.3-11,13.8l15.4,21.1h-9.1l-14.1-20.2h-1.3v20.2
				h-7.5V63.7H479.6z M478.3,86.3h2.4c2.1,0,10.5-0.2,10.5-8.1c0-7-6.6-7.6-10.3-7.6h-2.6V86.3z"/>
			<path d="M526.2,70.8v42.3h-7.5V70.8h-11.3v-7.1h30.2v7.1H526.2z"/>
			<path d="M573.7,70.8H554v12.5h19.1v7.1H554v15.5h19.7v7.1h-27.2V63.7h27.2V70.8z"/>
		</g>
		<g>
			<path class="st1" d="M324.3,113.4c-3.9-0.2-7.7-0.7-11.4-1.5c-2.8-0.6-5.6-1.4-8.4-2.4l-0.1,0c-18.1-6.6-32.3-20.9-38.9-39
				c-1-2.7-1.8-5.5-2.4-8.3l0-0.1c-0.8-3.6-1.3-7.4-1.5-11.2c1.1-20.9,18.4-37.6,39.2-38.2c0.8,0,1.6,0,2.3,0
				c32.6,0.6,58.7,26.7,59.3,59.3c0,0.4,0,0.8,0,1.2c0,0.4,0,0.8,0,1.2v0C361.9,95.1,345.1,112.3,324.3,113.4z M302,13.5
				c-0.4,0-0.8,0-1.1,0c-20.4,0.6-37.2,17-38.3,37.4c0.2,3.7,0.6,7.5,1.5,11.1l0,0.1c0.6,2.7,1.4,5.4,2.4,8.1
				c6.5,17.9,20.5,31.9,38.4,38.5c2.8,1,5.5,1.8,8.3,2.4c3.6,0.8,7.4,1.3,11.2,1.5c20.3-1.1,36.7-17.9,37.3-38.3c0-0.4,0-0.8,0-1.1
				s0-0.8,0-1.1c-0.6-32.1-26.3-57.8-58.4-58.4C302.8,13.5,302.4,13.5,302,13.5z M362,74.2L362,74.2L362,74.2z"/>
		</g>
	</g>
</g>
<g id="Warstwa_9">
</g>
</svg>
