<svg xmlns="http://www.w3.org/2000/svg" width="20.809" height="21.979" viewBox="0 0 20.809 21.979">
  <path id="Kształt_636_kopia" data-name="Kształt 636 kopia" d="M1225.84,6180.037c-1.23-.16-4.561-1.084-9.418-6.192l-.006.006c-.093-.1-.184-.2-.274-.3q-.167-.179-.336-.364l.008-.007c-4.552-5.206-5.223-8.628-5.294-9.908a2.092,2.092,0,0,1,.4-2.145,1.427,1.427,0,0,1,.19-.146,1.14,1.14,0,0,1,.145-.158l1.336-1.219a1.355,1.355,0,0,1,1.914.088l2.713,3.644a1.357,1.357,0,0,1-.088,1.916l-.669.608a1.35,1.35,0,0,1-.378.245,1.455,1.455,0,0,1-.289.365,1.584,1.584,0,0,1-.916.392c0,.554.55,1.831,3.183,4.774,2.763,2.99,4.01,3.669,4.568,3.722a1.581,1.581,0,0,1,.474-.875,1.445,1.445,0,0,1,.186-.144,1.135,1.135,0,0,1,.147-.162l1-.914a1.358,1.358,0,0,1,1.916.088l3.378,3.034a1.356,1.356,0,0,1-.087,1.916l-1,.914a1.355,1.355,0,0,1-.379.245,1.468,1.468,0,0,1-.289.365,1.654,1.654,0,0,1-1.143.4A2.968,2.968,0,0,1,1225.84,6180.037Z" transform="translate(-1209.892 -6158.746)" fill="#131317" stroke="#131317" stroke-linecap="round" stroke-linejoin="round" stroke-width="1"/>
</svg>
