<?xml version="1.0" encoding="utf-8"?>
<!-- Generator: Adobe Illustrator 25.3.1, SVG Export Plug-In . SVG Version: 6.00 Build 0)  -->
<svg version="1.1" xmlns="http://www.w3.org/2000/svg" xmlns:xlink="http://www.w3.org/1999/xlink" x="0px" y="0px"
	 viewBox="0 0 581.7 197.2" style="enable-background:new 0 0 581.7 197.2;" xml:space="preserve">
<style type="text/css">
	.st0{opacity:0.13;fill:#7CCDC8;}
	.st1{fill:#FFFFFF;}
</style>
<g id="Warstwa_4">
</g>
<g id="Warstwa_3">
</g>
<g id="Warstwa_6">
</g>
<g id="Warstwa_7">
</g>
<g id="Warstwa_5">
	<g>
		<g>
			<path class="st0" d="M361.3,74.8c-0.6,20.8-17.1,37.7-37.8,38.8c-3.8-0.2-7.6-0.7-11.2-1.5c-2.8-0.6-5.6-1.4-8.3-2.4c0,0,0,0,0,0
				c-17.9-6.6-32.2-20.8-38.7-38.8c-1-2.7-1.8-5.4-2.4-8.2c0,0,0,0,0,0c-0.8-3.6-1.3-7.4-1.5-11.2c1.1-20.7,18-37.2,38.8-37.8
				c0.4,0,0.8,0,1.2,0c0.4,0,0.8,0,1.2,0c32.2,0.6,58.2,26.6,58.8,58.8c0,0.4,0,0.8,0,1.2C361.3,74,361.3,74.4,361.3,74.8z"/>
			<path class="st0" d="M361.3,72.5c0,0.4,0,0.8,0,1.2c0,0.4,0,0.8,0,1.2c-0.6,20.8-17.1,37.7-37.8,38.8c-3.8-0.2-7.6-0.7-11.2-1.5
				c-2.8-0.6-5.6-1.4-8.3-2.4c0,0,0,0,0,0c-17.9-6.6-32.2-20.8-38.7-38.8c-1-2.7-1.8-5.4-2.4-8.2c0,0,0,0,0,0
				c-0.8-3.6-1.3-7.4-1.5-11.2c1.1-20.7,18-37.2,38.8-37.8c0.4,0,0.8,0,1.2,0c0.4,0,0.8,0,1.2,0C334.7,14.2,360.7,40.2,361.3,72.5z"
				/>
			<path class="st0" d="M341.3,73.6c0,18.3-12.3,33.7-29,38.5c-2.8-0.6-5.6-1.4-8.3-2.4c0,0,0,0,0,0c-17.9-6.6-32.2-20.8-38.7-38.8
				c-1-2.7-1.8-5.4-2.4-8.2c0,0,0,0,0,0c4.8-16.8,20.2-29,38.5-29c3.5,0,6.8,0.4,10,1.3c14.1,3.6,25.1,14.7,28.7,28.7v0
				C340.9,66.8,341.3,70.2,341.3,73.6z"/>
			<path class="st0" d="M361.3,73.6c0,0.4,0,0.8,0,1.2c-0.6,20.8-17.1,37.7-37.8,38.8c-3.8-0.2-7.6-0.7-11.2-1.5
				c-2.8-0.6-5.6-1.4-8.3-2.4c0,0,0,0,0,0c-7.1-3.4-13-8.9-17-15.6c-0.8-1.3-1.5-2.6-2.1-4c-2.3-5-3.5-10.6-3.5-16.5
				c0-7.5,2.1-14.5,5.6-20.4c5.3-9,14-15.6,24.4-18.3c3.2-0.8,6.6-1.3,10-1.3c5.9,0,11.4,1.3,16.5,3.5c13.5,6.1,23.1,19.6,23.5,35.3
				C361.3,72.8,361.3,73.2,361.3,73.6z"/>
			<circle class="st0" cx="301.3" cy="73.6" r="25"/>
			<circle class="st0" cx="301.3" cy="73.6" r="15"/>
			<circle class="st0" cx="301.3" cy="73.6" r="5"/>
			<circle class="st0" cx="301.3" cy="73.6" r="2.5"/>
			<path class="st0" d="M341.3,53.6c0,3.4-0.4,6.8-1.3,10v0c-2.7,10.3-9.4,19.1-18.3,24.4c-6,3.6-13,5.6-20.4,5.6
				c-5.9,0-11.4-1.3-16.5-3.5c-1.4-0.6-2.7-1.3-4-2.1c-6.8-4-12.2-10-15.6-17.1c-1-2.7-1.8-5.4-2.4-8.2c0,0,0,0,0,0
				c-0.8-3.6-1.3-7.4-1.5-11.2c1.1-20.7,18-37.2,38.8-37.8c0.4,0,0.8,0,1.2,0c0.4,0,0.8,0,1.2,0c15.7,0.5,29.2,10,35.3,23.5
				C340.1,42.2,341.3,47.8,341.3,53.6z"/>
		</g>
		<g>
			<g>
				<circle class="st1" cx="212.1" cy="86.2" r="4"/>
				<circle class="st1" cx="220.8" cy="126.2" r="6.5"/>
				<circle class="st1" cx="302.1" cy="176.2" r="13"/>
				<circle class="st1" cx="254.1" cy="163.2" r="9"/>
				<circle class="st1" cx="392.1" cy="86.2" r="4"/>
				<circle class="st1" cx="383.4" cy="126.2" r="6.5"/>
				<circle class="st1" cx="350" cy="163.2" r="9"/>
				<circle class="st1" cx="212.1" cy="86.2" r="4"/>
				<circle class="st1" cx="220.8" cy="126.2" r="6.5"/>
				<circle class="st1" cx="302.1" cy="176.2" r="13"/>
				<circle class="st1" cx="254.1" cy="163.2" r="9"/>
				<circle class="st1" cx="392.1" cy="86.2" r="4"/>
				<circle class="st1" cx="383.4" cy="126.2" r="6.5"/>
				<circle class="st1" cx="350" cy="163.2" r="9"/>
			</g>
			<path class="st1" d="M362,74.2c-0.6,20.8-17.1,37.7-37.8,38.8c-3.8-0.2-7.6-0.7-11.2-1.5c-2.8-0.6-5.6-1.4-8.3-2.4c0,0,0,0,0,0
				c-17.9-6.6-32.2-20.8-38.7-38.8c-1-2.7-1.8-5.4-2.4-8.2c0,0,0,0,0,0c-0.8-3.6-1.3-7.4-1.5-11.2c1.1-20.7,18-37.2,38.8-37.8
				c0.4,0,0.8,0,1.2,0c0.4,0,0.8,0,1.2,0c32.2,0.6,58.2,26.6,58.8,58.8c0,0.4,0,0.8,0,1.2C362.1,73.4,362.1,73.8,362,74.2z
				 M302.1,8.1c-11.5,0-22.3,3-31.7,8.3c-19.8,11.1-33.3,32.4-33.3,56.7c0,35.9,29.1,65,65,65c24.4,0,45.6-13.4,56.7-33.3
				c5.3-9.4,8.3-20.2,8.3-31.7C367.1,37.2,338,8.1,302.1,8.1z"/>
		</g>
		<g>
			<path class="st1" d="M15.6,63.7v42.3h14.5v7.1H8.1V63.7H15.6z"/>
			<path class="st1" d="M47,63.7v29.8c0,2.7,0.1,5.9,1.6,8.5c1.5,2.5,4.8,5.1,9.2,5.1c4.4,0,7.7-2.6,9.2-5.1
				c1.5-2.6,1.6-5.8,1.6-8.5V63.7H76v31.7c0,3.9-0.8,8.7-4.6,12.8c-2.6,2.8-7,5.8-13.7,5.8c-6.7,0-11.1-3-13.7-5.8
				c-3.8-4.1-4.6-8.9-4.6-12.8V63.7H47z"/>
			<path class="st1" d="M90,113.1V60.4l35.8,37.5V63.7h7.5v52.4L97.6,78.6v34.5H90z"/>
			<path class="st1" d="M176.5,101.1h-21.1l-5.4,11.9h-8.1l24.6-52.2l23.4,52.2h-8.1L176.5,101.1z M173.4,94l-7.3-16.7L158.5,94
				H173.4z"/>
		</g>
		<g>
			<path class="st1" d="M449,101.1H428l-5.4,11.9h-8.1L439,60.8l23.4,52.2h-8.1L449,101.1z M446,94l-7.3-16.7L431.1,94H446z"/>
			<path class="st1" d="M479.6,63.7c6,0,9.8,0.7,13,2.9c5.4,3.6,5.8,9.5,5.8,11.6c0,7.1-4.4,12.3-11,13.8l15.4,21.1h-9.1l-14.1-20.2
				h-1.3v20.2h-7.5V63.7H479.6z M478.3,86.3h2.4c2.1,0,10.5-0.2,10.5-8.1c0-7-6.6-7.6-10.3-7.6h-2.6V86.3z"/>
			<path class="st1" d="M526.2,70.8v42.3h-7.5V70.8h-11.3v-7.1h30.2v7.1H526.2z"/>
			<path class="st1" d="M573.7,70.8H554v12.5h19.1v7.1H554v15.5h19.7v7.1h-27.2V63.7h27.2V70.8z"/>
		</g>
		<g>
			<g>
				<path class="st1" d="M302.1,113.8c-22.4,0-40.7-18.3-40.7-40.7s18.3-40.7,40.7-40.7s40.7,18.3,40.7,40.7
					S324.5,113.8,302.1,113.8z M302.1,33.8c-21.7,0-39.3,17.6-39.3,39.3s17.6,39.3,39.3,39.3s39.3-17.6,39.3-39.3
					S323.7,33.8,302.1,33.8z"/>
			</g>
			<g>
				<path class="st1" d="M322.1,113.8c-22.4,0-40.7-18.3-40.7-40.7s18.3-40.7,40.7-40.7s40.7,18.3,40.7,40.7
					S344.5,113.8,322.1,113.8z M322.1,33.8c-21.7,0-39.3,17.6-39.3,39.3s17.6,39.3,39.3,39.3s39.3-17.6,39.3-39.3
					S343.7,33.8,322.1,33.8z"/>
			</g>
			<g>
				<path class="st1" d="M302.1,98.8c-14.2,0-25.7-11.5-25.7-25.7s11.5-25.7,25.7-25.7s25.7,11.5,25.7,25.7S316.2,98.8,302.1,98.8z
					 M302.1,48.8c-13.4,0-24.3,10.9-24.3,24.3s10.9,24.3,24.3,24.3s24.3-10.9,24.3-24.3S315.4,48.8,302.1,48.8z"/>
			</g>
			<g>
				<path class="st1" d="M302.1,88.8c-8.7,0-15.7-7-15.7-15.7s7-15.7,15.7-15.7s15.7,7,15.7,15.7S310.7,88.8,302.1,88.8z
					 M302.1,58.8c-7.9,0-14.3,6.4-14.3,14.3s6.4,14.3,14.3,14.3s14.3-6.4,14.3-14.3S309.9,58.8,302.1,58.8z"/>
			</g>
			<g>
				<path class="st1" d="M302.1,78.8c-3.1,0-5.7-2.6-5.7-5.7s2.6-5.7,5.7-5.7s5.7,2.6,5.7,5.7S305.2,78.8,302.1,78.8z M302.1,68.8
					c-2.4,0-4.3,1.9-4.3,4.3s1.9,4.3,4.3,4.3s4.3-1.9,4.3-4.3S304.4,68.8,302.1,68.8z"/>
			</g>
			<g>
				<path class="st1" d="M302.1,76.3c-1.8,0-3.2-1.4-3.2-3.2s1.4-3.2,3.2-3.2s3.2,1.4,3.2,3.2S303.8,76.3,302.1,76.3z M302.1,71.3
					c-1,0-1.8,0.8-1.8,1.8s0.8,1.8,1.8,1.8s1.8-0.8,1.8-1.8S303,71.3,302.1,71.3z"/>
			</g>
			<g>
				<path class="st1" d="M302.1,133.8c-33.5,0-60.7-27.2-60.7-60.7s27.2-60.7,60.7-60.7s60.7,27.2,60.7,60.7
					S335.5,133.8,302.1,133.8z M302.1,13.8c-32.7,0-59.3,26.6-59.3,59.3s26.6,59.3,59.3,59.3s59.3-26.6,59.3-59.3
					S334.7,13.8,302.1,13.8z"/>
			</g>
			<g>
				<path class="st1" d="M324.3,113.7c-3.9-0.2-7.7-0.7-11.4-1.5c-2.8-0.6-5.6-1.4-8.4-2.4l-0.1,0c-18.2-6.7-32.4-21-39.1-39.2
					c-1-2.7-1.8-5.5-2.4-8.3l0-0.1c-0.8-3.7-1.3-7.5-1.5-11.3c1.1-21,18.5-37.9,39.5-38.5c0.8,0,1.6,0,2.4,0
					c32.8,0.6,58.9,26.8,59.5,59.5c0,0.4,0,0.8,0,1.2c0,0.4,0,0.8,0,1.2v0C362.1,95.2,345.3,112.6,324.3,113.7z M264.3,62
					c0.6,2.7,1.4,5.4,2.3,8c6.5,17.8,20.4,31.8,38.3,38.4l0.1,0.1c2.6,0.9,5.4,1.7,8.1,2.3c3.6,0.8,7.4,1.3,11.1,1.5
					c20.2-1.1,36.5-17.8,37-38.1c0-0.4,0-0.8,0-1.1c0-0.4,0-0.8,0-1.1c-0.6-32-26.1-57.5-58.1-58.1c-0.4,0-0.8,0-1.1,0c0,0,0,0,0,0
					c-0.4,0-0.7,0-1.1,0c-20.3,0.6-37,16.9-38.1,37.1C263,54.5,263.5,58.3,264.3,62L264.3,62z M362,74.2L362,74.2L362,74.2z"/>
			</g>
			<g>
				<path class="st1" d="M302.1,93.8c-22.4,0-40.7-18.3-40.7-40.7s18.3-40.7,40.7-40.7s40.7,18.3,40.7,40.7S324.5,93.8,302.1,93.8z
					 M302.1,13.8c-21.7,0-39.3,17.6-39.3,39.3s17.6,39.3,39.3,39.3s39.3-17.6,39.3-39.3S323.7,13.8,302.1,13.8z"/>
			</g>
		</g>
	</g>
</g>
<g id="Warstwa_9">
</g>
</svg>
